<svg width="63" height="56" viewBox="0 0 63 56" fill="none" xmlns="http://www.w3.org/2000/svg">
<g clip-path="url(#clip0_227_65)">
<path d="M18.8234 4.3925L29.3234 0.411251C30.7234 -0.119109 32.2766 -0.119109 33.6766 0.411251L44.1766 4.3925C46.55 5.29485 48.125 7.57423 48.125 10.1194V22.3891C48.2672 22.4328 48.4094 22.4766 48.5516 22.4328L59.0516 26.5125C61.425 27.4094 63 29.6953 63 32.2328V45.2704C63 47.6985 61.5672 49.8969 59.3359 50.8704L48.8359 55.486C47.2719 56.186 45.4781 56.186 43.9141 55.486L31.5 50.0391L19.0859 55.486C17.5219 56.186 15.7281 56.186 14.1641 55.486L3.65969 50.8704C1.43609 49.8969 0 47.6985 0 45.2704V32.2328C0 29.6953 1.57391 27.4094 3.95391 26.5125L14.4484 22.4328C14.5906 22.4766 14.7328 22.4328 14.875 22.3891V10.1194C14.875 7.57423 16.45 5.29485 18.8234 4.3925ZM31.8062 5.32001C31.6094 5.24454 31.2922 5.24454 31.1938 5.32001L22.6187 8.56954L31.4016 11.9766L40.3813 8.56954L31.8062 5.32001ZM42.875 23.0344V13.2344L33.8625 16.6906V26.4469L42.875 23.0344ZM16.9312 27.4422C16.7344 27.3657 16.4172 27.3657 16.3188 27.4422L7.74484 30.6907L16.625 34.0922L25.5063 30.6907L16.9312 27.4422ZM18.9875 49.7985L28 45.8391V35.35L18.9875 38.8063V49.7985ZM37.4937 30.6907L46.375 34.0922L55.2563 30.6907L46.6812 27.4422C46.4844 27.3657 46.1672 27.3657 46.0688 27.4422L37.4937 30.6907ZM57.75 45.2704V35.35L48.7375 38.8063V49.7985L57.225 46.0688C57.5422 45.9266 57.75 45.6203 57.75 45.2704Z" fill="black"/>
</g>
<defs>
<clipPath id="clip0_227_65">
<rect width="63" height="56" fill="white"/>
</clipPath>
</defs>
</svg>
