<svg width="56" height="56" viewBox="0 0 56 56" fill="none" xmlns="http://www.w3.org/2000/svg">
<path d="M4.99078 8.72266L5.6875 8.88672V15.2852C4.92188 15.7391 4.375 16.5484 4.375 17.5C4.375 18.416 4.88086 19.1822 5.59125 19.6602L3.88281 26.4688C3.69141 27.2234 4.11578 28 4.71734 28H9.28375C9.88531 28 10.3091 27.2207 10.1177 26.5672L8.40875 19.6656C9.11969 19.1844 9.625 18.4188 9.625 17.5C9.625 16.543 9.07812 15.7369 8.3125 15.2852V9.52984L14 10.897L14.0001 17.5C14.0001 25.2383 20.2618 31.5 28.0001 31.5C35.7384 31.5 41.9017 25.2383 41.9017 17.5L42 10.8959L50.9961 8.72266C52.9922 8.24414 52.9922 5.76953 50.9961 5.27734L30.1711 0.246094C28.7492 -0.0820312 27.2595 -0.0820312 25.8366 0.246094L4.98969 5.27734C3.00781 5.75641 3.00781 8.24469 4.99078 8.72266ZM39.2875 34.2125L28 45.5L16.7125 34.2125C9.06391 36.6516 3.5 43.75 3.5 52.2047C3.5 54.3047 5.19859 56 7.29203 56H48.7123C50.8047 56 52.5 54.3047 52.5 52.2047C52.5 43.75 46.9328 36.6516 39.2875 34.2125Z" fill="black"/>
</svg>
